<?xml version="1.0"?>
<svg xmlns="http://www.w3.org/2000/svg" height="512px" viewBox="0 0 512.00003 512.00003" width="512px"><path d="m469.332031 0h-426.664062c-23.554688.0273438-42.6406252 19.113281-42.667969 42.667969v426.664062c.0273438 23.554688 19.113281 42.640625 42.667969 42.667969h426.664062c23.554688-.027344 42.640625-19.113281 42.667969-42.667969v-426.664062c-.027344-23.554688-19.113281-42.6406252-42.667969-42.667969zm-426.664062 17.066406h426.664062c14.140625 0 25.601563 11.460938 25.601563 25.601563v153.597656h-90.453125l-88.21875-84.964844c-6.542969-6.34375-16.941407-6.34375-23.484375 0l-32.144532 30.949219-45.3125-43.628906c-6.542968-6.339844-16.9375-6.339844-23.484374 0l-101.382813 97.644531h-73.386719v-153.597656c0-14.140625 11.460938-25.601563 25.601563-25.601563zm274.074219 179.199219-43.820313-42.1875 31.503906-30.488281 75.476563 72.675781zm-24.613282 0h-177.125l88.480469-85.332031zm177.203125 298.667969h-426.664062c-14.140625 0-25.601563-11.460938-25.601563-25.601563v-256h477.867188v256c0 14.140625-11.460938 25.601563-25.601563 25.601563zm0 0" fill="#d96c00"/><path d="m401.066406 102.398438c18.851563 0 34.132813-15.28125 34.132813-34.132813s-15.28125-34.132813-34.132813-34.132813c-18.851562 0-34.132812 15.28125-34.132812 34.132813s15.28125 34.132813 34.132812 34.132813zm0-51.199219c9.425782 0 17.066406 7.640625 17.066406 17.066406s-7.640624 17.066406-17.066406 17.066406c-9.425781 0-17.066406-7.640625-17.066406-17.066406s7.640625-17.066406 17.066406-17.066406zm0 0" fill="#d96c00"/><path d="m179.199219 256h153.601562c4.710938 0 8.53125-3.820312 8.53125-8.535156 0-4.710938-3.820312-8.53125-8.53125-8.53125h-153.601562c-4.710938 0-8.53125 3.820312-8.53125 8.53125 0 4.714844 3.820312 8.535156 8.53125 8.535156zm0 0" fill="#d96c00"/><path d="m281.601562 281.601562c0-4.714843-3.820312-8.535156-8.535156-8.535156h-34.132812c-4.714844 0-8.535156 3.820313-8.535156 8.535156 0 4.710938 3.820312 8.53125 8.535156 8.53125h34.132812c4.714844 0 8.535156-3.820312 8.535156-8.53125zm0 0" fill="#d96c00"/><path d="m179.199219 59.734375h153.601562c4.710938 0 8.53125-3.820313 8.53125-8.535156 0-4.710938-3.820312-8.53125-8.53125-8.53125h-153.601562c-4.710938 0-8.53125 3.820312-8.53125 8.53125 0 4.714843 3.820312 8.535156 8.53125 8.535156zm0 0" fill="#d96c00"/><path d="m273.066406 76.800781h-34.132812c-4.714844 0-8.535156 3.820313-8.535156 8.53125 0 4.714844 3.820312 8.535157 8.535156 8.535157h34.132812c4.714844 0 8.535156-3.820313 8.535156-8.535157 0-4.710937-3.820312-8.53125-8.535156-8.53125zm0 0" fill="#d96c00"/><path d="m221.867188 307.199219h-170.667969c-9.425781 0-17.066407 7.640625-17.066407 17.066406v85.335937c0 9.425782 7.640626 17.066407 17.066407 17.066407h170.667969c9.425781 0 17.066406-7.640625 17.066406-17.066407v-85.335937c0-9.425781-7.640625-17.066406-17.066406-17.066406zm-46.933594 102.402343-15.976563-15.976562 12.445313-11.605469 29.582031 27.582031zm-34.585938-10.445312.066406.109375s.105469.058594.148438.101563l10.238281 10.242187h-78.191406l39.09375-39.125zm81.519532-74.890625v81.496094l-44.621094-41.652344c-3.277344-3.058594-8.363282-3.058594-11.640625 0l-18.695313 17.441406-29.183594-29.183593c-1.601562-1.601563-3.773437-2.503907-6.039062-2.503907s-4.4375.902344-6.035156 2.503907l-54.453125 54.519531v-82.621094zm0 0" fill="#d96c00"/><path d="m460.800781 307.199219h-170.667969c-9.425781 0-17.066406 7.640625-17.066406 17.066406v85.335937c0 9.425782 7.640625 17.066407 17.066406 17.066407h170.667969c9.425781 0 17.066407-7.640625 17.066407-17.066407v-85.335937c0-9.425781-7.640626-17.066406-17.066407-17.066406zm-46.933593 102.402343-15.609376-15.601562 12.074219-11.261719 28.820313 26.863281zm-35.730469-11.597656c.308593.710938.71875 1.378906 1.210937 1.980469.761719.804687 1.671875 1.453125 2.679688 1.910156l7.679687 7.679688h-78.164062l39.089843-39.125zm82.664062-73.738281v82.210937l-44.621093-41.652343c-3.277344-3.054688-8.363282-3.054688-11.640626 0l-18.320312 17.066406-29.527344-29.523437c-1.597656-1.601563-3.769531-2.503907-6.035156-2.503907s-4.4375.902344-6.039062 2.503907l-54.484376 54.519531v-82.621094zm0 0" fill="#d96c00"/><path d="m215.808594 446.207031c-1.5625 1.636719-2.445313 3.800781-2.476563 6.058594-.027343 1.121094.207031 2.230469.683594 3.242187.433594 1.035157 1.039063 1.988282 1.792969 2.816407 1.632812 1.558593 3.796875 2.445312 6.058594 2.476562 3.445312-.019531 6.542968-2.105469 7.851562-5.292969.4375-1.023437.667969-2.125.679688-3.242187-.023438-2.277344-.941407-4.453125-2.558594-6.058594-3.386719-3.15625-8.644532-3.15625-12.03125 0zm0 0" fill="#d96c00"/><path d="m249.941406 446.207031c-1.5625 1.636719-2.445312 3.800781-2.476562 6.058594-.027344 1.121094.207031 2.230469.683594 3.242187.433593 1.035157 1.039062 1.988282 1.792968 2.816407 1.636719 1.558593 3.800782 2.445312 6.058594 2.476562 3.445312-.019531 6.542969-2.105469 7.851562-5.292969.4375-1.023437.667969-2.125.683594-3.242187-.027344-2.277344-.945312-4.453125-2.5625-6.058594-3.386718-3.15625-8.640625-3.15625-12.03125 0zm0 0" fill="#d96c00"/><path d="m284.074219 446.207031c-1.5625 1.636719-2.445313 3.800781-2.472657 6.058594-.03125 1.121094.203126 2.230469.679688 3.242187.433594 1.035157 1.039062 1.988282 1.792969 2.816407 1.636719 1.558593 3.800781 2.445312 6.058593 2.476562 3.445313-.019531 6.542969-2.105469 7.851563-5.292969.4375-1.023437.667969-2.125.683594-3.242187-.027344-2.277344-.945313-4.453125-2.5625-6.058594-3.386719-3.15625-8.640625-3.15625-12.03125 0zm0 0" fill="#d96c00"/></svg>
